REM DIRINDEX 1\2,1\3,1\4,1\5
REM DIRNAME cjc005,folder01,folder02,folder03,folder04
TITLE ""
FILE "P1Q_j_1789-1802.mp3" MP3
  TRACK 01 AUDIO
    TITLE "3:cjc005_0716"
    INDEX 01 00:00:00
  TRACK 02 AUDIO
    TITLE "0:"
    INDEX 01 00:01:05
  TRACK 03 AUDIO
    TITLE "4:cjc005_0717"
    INDEX 01 00:01:42
  TRACK 04 AUDIO
    TITLE "0:"
    INDEX 01 00:02:57
  TRACK 05 AUDIO
    TITLE "5:cjc005_0718"
    INDEX 01 00:03:10
  TRACK 06 AUDIO
    TITLE "0:"
    INDEX 01 00:07:13
  TRACK 07 AUDIO
    TITLE "3:cjc005_0719"
    INDEX 01 00:07:64
  TRACK 08 AUDIO
    TITLE "0:"
    INDEX 01 00:09:06
  TRACK 09 AUDIO
    TITLE "4:cjc005_0720"
    INDEX 01 00:09:38
  TRACK 10 AUDIO
    TITLE "0:"
    INDEX 01 00:10:55
  TRACK 11 AUDIO
    TITLE "5:cjc005_0721"
    INDEX 01 00:11:07
  TRACK 12 AUDIO
    TITLE "0:"
    INDEX 01 00:14:39
  TRACK 13 AUDIO
    TITLE "3:cjc005_0722"
    INDEX 01 00:15:23
  TRACK 14 AUDIO
    TITLE "0:"
    INDEX 01 00:16:53
  TRACK 15 AUDIO
    TITLE "4:cjc005_0723"
    INDEX 01 00:17:12
  TRACK 16 AUDIO
    TITLE "0:"
    INDEX 01 00:18:33
  TRACK 17 AUDIO
    TITLE "5:cjc005_0724"
    INDEX 01 00:18:62
  TRACK 18 AUDIO
    TITLE "0:"
    INDEX 01 00:21:39
  TRACK 19 AUDIO
    TITLE "3:cjc005_0725"
    INDEX 01 00:22:29
  TRACK 20 AUDIO
    TITLE "0:"
    INDEX 01 00:23:55
  TRACK 21 AUDIO
    TITLE "4:cjc005_0726"
    INDEX 01 00:24:12
  TRACK 22 AUDIO
    TITLE "0:"
    INDEX 01 00:25:29
  TRACK 23 AUDIO
    TITLE "5:cjc005_0727"
    INDEX 01 00:25:62
  TRACK 24 AUDIO
    TITLE "0:"
    INDEX 01 00:30:32
  TRACK 25 AUDIO
    TITLE "3:cjc005_0728"
    INDEX 01 00:31:08
  TRACK 26 AUDIO
    TITLE "0:"
    INDEX 01 00:32:27
  TRACK 27 AUDIO
    TITLE "4:cjc005_0729"
    INDEX 01 00:32:56
  TRACK 28 AUDIO
    TITLE "0:"
    INDEX 01 00:34:38
  TRACK 29 AUDIO
    TITLE "5:cjc005_0730"
    INDEX 01 00:34:67
  TRACK 30 AUDIO
    TITLE "0:"
    INDEX 01 00:38:39
  TRACK 31 AUDIO
    TITLE "3:cjc005_0731"
    INDEX 01 00:39:21
  TRACK 32 AUDIO
    TITLE "0:"
    INDEX 01 00:40:48
  TRACK 33 AUDIO
    TITLE "4:cjc005_0732"
    INDEX 01 00:41:06
  TRACK 34 AUDIO
    TITLE "0:"
    INDEX 01 00:42:29
  TRACK 35 AUDIO
    TITLE "5:cjc005_0733"
    INDEX 01 00:42:51
  TRACK 36 AUDIO
    TITLE "0:"
    INDEX 01 00:45:57
  TRACK 37 AUDIO
    TITLE "3:cjc005_0734"
    INDEX 01 00:46:37
  TRACK 38 AUDIO
    TITLE "0:"
    INDEX 01 00:47:50
  TRACK 39 AUDIO
    TITLE "4:cjc005_0735"
    INDEX 01 00:48:22
  TRACK 40 AUDIO
    TITLE "0:"
    INDEX 01 00:49:41
  TRACK 41 AUDIO
    TITLE "5:cjc005_0736"
    INDEX 01 00:49:65
  TRACK 42 AUDIO
    TITLE "0:"
    INDEX 01 00:54:34
  TRACK 43 AUDIO
    TITLE "3:cjc005_0737"
    INDEX 01 00:55:18
  TRACK 44 AUDIO
    TITLE "0:"
    INDEX 01 00:56:63
  TRACK 45 AUDIO
    TITLE "4:cjc005_0738"
    INDEX 01 00:57:19
  TRACK 46 AUDIO
    TITLE "0:"
    INDEX 01 00:58:38
  TRACK 47 AUDIO
    TITLE "5:cjc005_0739"
    INDEX 01 00:58:62
  TRACK 48 AUDIO
    TITLE "0:"
    INDEX 01 01:02:38
  TRACK 49 AUDIO
    TITLE "3:cjc005_0740"
    INDEX 01 01:03:18
  TRACK 50 AUDIO
    TITLE "0:"
    INDEX 01 01:04:43
  TRACK 51 AUDIO
    TITLE "4:cjc005_0741"
    INDEX 01 01:05:03
  TRACK 52 AUDIO
    TITLE "0:"
    INDEX 01 01:06:47
  TRACK 53 AUDIO
    TITLE "5:cjc005_0742"
    INDEX 01 01:06:73
  TRACK 54 AUDIO
    TITLE "0:"
    INDEX 01 01:11:15
  TRACK 55 AUDIO
    TITLE "3:cjc005_0743"
    INDEX 01 01:11:60
  TRACK 56 AUDIO
    TITLE "0:"
    INDEX 01 01:13:02
  TRACK 57 AUDIO
    TITLE "4:cjc005_0744"
    INDEX 01 01:13:30
  TRACK 58 AUDIO
    TITLE "0:"
    INDEX 01 01:14:68
  TRACK 59 AUDIO
    TITLE "5:cjc005_0745"
    INDEX 01 01:15:23
  TRACK 60 AUDIO
    TITLE "0:"
    INDEX 01 01:20:12
  TRACK 61 AUDIO
    TITLE "3:cjc005_0746"
    INDEX 01 01:21:00
  TRACK 62 AUDIO
    TITLE "0:"
    INDEX 01 01:22:27
  TRACK 63 AUDIO
    TITLE "4:cjc005_0747"
    INDEX 01 01:22:54
  TRACK 64 AUDIO
    TITLE "0:"
    INDEX 01 01:24:00
  TRACK 65 AUDIO
    TITLE "5:cjc005_0748"
    INDEX 01 01:24:28
  TRACK 66 AUDIO
    TITLE "0:"
    INDEX 01 01:28:35
  TRACK 67 AUDIO
    TITLE "3:cjc005_0749"
    INDEX 01 01:29:21
  TRACK 68 AUDIO
    TITLE "0:"
    INDEX 01 01:30:44
  TRACK 69 AUDIO
    TITLE "4:cjc005_0750"
    INDEX 01 01:31:00
  TRACK 70 AUDIO
    TITLE "0:"
    INDEX 01 01:32:70
  TRACK 71 AUDIO
    TITLE "5:cjc005_0751"
    INDEX 01 01:33:23
  TRACK 72 AUDIO
    TITLE "0:"
    INDEX 01 01:36:27
  TRACK 73 AUDIO
    TITLE "3:cjc005_0752"
    INDEX 01 01:37:07
  TRACK 74 AUDIO
    TITLE "0:"
    INDEX 01 01:38:26
  TRACK 75 AUDIO
    TITLE "4:cjc005_0753"
    INDEX 01 01:38:67
  TRACK 76 AUDIO
    TITLE "0:"
    INDEX 01 01:40:64
  TRACK 77 AUDIO
    TITLE "5:cjc005_0754"
    INDEX 01 01:41:14
  TRACK 78 AUDIO
    TITLE "0:"
    INDEX 01 01:45:20
  TRACK 79 AUDIO
    TITLE "3:cjc005_0755"
    INDEX 01 01:46:02
  TRACK 80 AUDIO
    TITLE "0:"
    INDEX 01 01:47:33
  TRACK 81 AUDIO
    TITLE "4:cjc005_0756"
    INDEX 01 01:47:66
  TRACK 82 AUDIO
    TITLE "0:"
    INDEX 01 01:49:14
  TRACK 83 AUDIO
    TITLE "5:cjc005_0757"
    INDEX 01 01:49:47
  TRACK 84 AUDIO
    TITLE "0:"
    INDEX 01 01:54:37
